<svg width="32" height="29" viewBox="0 0 32 29" fill="none" xmlns="http://www.w3.org/2000/svg">
<g clip-path="url(#clip0_3_510)">
<path d="M18.4163 27.9531C10.9227 27.9531 4.82336 24.079 4.82336 19.3207C4.82336 16.0214 13.993 8.27879 15.0439 7.40561C15.1812 7.29508 15.3667 7.22876 15.559 7.22876H21.2806C21.4729 7.22876 21.6583 7.28955 21.7957 7.40561C22.8397 8.27879 32.0093 16.0159 32.0093 19.3207C32.0093 24.079 25.91 27.9531 18.4163 27.9531ZM15.8612 8.37827C12.997 10.7933 6.25204 16.972 6.25204 19.3207C6.25204 23.449 11.7057 26.8036 18.4163 26.8036C25.1201 26.8036 30.5807 23.4435 30.5807 19.3207C30.5807 16.9775 23.8426 10.7989 20.9715 8.3838H15.8612V8.37827Z" fill="#010101"/>
<path d="M24.1379 8.37827H12.6948C12.2964 8.37827 11.9805 8.11852 11.9805 7.80351C11.9805 7.4885 12.3033 7.22876 12.6948 7.22876H24.1448C24.5432 7.22876 24.8591 7.4885 24.8591 7.80351C24.8591 8.11852 24.5363 8.37827 24.1379 8.37827Z" fill="#010101"/>
<path d="M21.2805 8.3783H15.559C15.3941 8.3783 15.2362 8.33409 15.1125 8.25119C14.5012 7.85881 9.10248 4.33291 8.87582 2.19969C8.82774 1.76862 8.97885 1.38177 9.30167 1.08886C10.4899 0.00566864 13.6014 1.42598 15.3735 2.39311C16.184 1.45914 17.386 0.320679 18.4163 0.320679C19.4466 0.320679 20.6486 1.45914 21.466 2.39311C23.245 1.4315 26.3496 0.00566864 27.5378 1.08886C27.8607 1.38729 28.0118 1.76862 27.9637 2.19969C27.7302 4.33291 22.3383 7.85329 21.727 8.25119C21.5965 8.33409 21.4385 8.3783 21.2805 8.3783ZM15.8062 7.22879H21.0264C23.1694 5.82506 26.4114 3.30498 26.5419 2.10574C26.5625 1.93994 26.4938 1.87915 26.4663 1.85704C26.0061 1.63046 23.6914 2.52022 21.6927 3.66973C21.5347 3.76368 21.3286 3.79684 21.1432 3.76921C20.9508 3.74158 20.7791 3.64763 20.6761 3.51499C19.8656 2.50364 18.7735 1.53098 18.3957 1.47572C18.0523 1.53098 16.967 2.50364 16.1497 3.51499C16.0467 3.64763 15.8749 3.73605 15.6826 3.76921C15.4972 3.79684 15.2911 3.76368 15.1331 3.66973C12.942 2.40969 10.7647 1.65809 10.3526 1.86257C10.332 1.87915 10.2701 1.93994 10.2908 2.10574C10.4213 3.30498 13.6632 5.82506 15.8062 7.22879Z" fill="#010101"/>
<path d="M18.4164 23.3495C16.507 23.3495 14.9753 22.4266 14.8448 21.2052C14.8104 20.8902 15.1058 20.6084 15.4973 20.5862C15.8476 20.5531 16.2391 20.7907 16.2666 21.1113C16.3284 21.7137 17.29 22.2 18.4096 22.2C19.5772 22.2 20.5594 21.675 20.5594 21.0505C20.5594 20.4868 19.8795 20.1276 18.4302 19.912L18.2722 19.8899C15.9506 19.5473 14.8379 18.7791 14.8379 17.5964C14.8379 16.3253 16.4451 15.2919 18.4164 15.2919C20.3259 15.2919 21.8576 16.2148 21.9881 17.4361C22.0225 17.7512 21.7271 18.033 21.3356 18.0606C20.9716 18.0827 20.5938 17.8506 20.5663 17.5356C20.5045 16.9332 19.5429 16.4469 18.4233 16.4469C17.2556 16.4469 16.2734 16.9719 16.2734 17.5964C16.2734 18.1601 16.9534 18.5193 18.4096 18.7349L18.5675 18.757C20.8891 19.0996 21.995 19.8678 21.995 21.0505C21.995 22.316 20.3877 23.3495 18.4164 23.3495Z" fill="#D73434"/>
<path d="M18.4164 24.4991C18.018 24.4991 17.702 24.2394 17.702 23.9244V14.7117C17.702 14.3912 18.0249 14.137 18.4164 14.137C18.8147 14.137 19.1307 14.3967 19.1307 14.7117V23.9244C19.1307 24.2394 18.8147 24.4991 18.4164 24.4991Z" fill="#FF0707"/>
</g>
<defs>
<clipPath id="clip0_3_510">
<rect width="30.6659" height="27.9601" fill="white" transform="translate(0.866455 0.320679)"/>
</clipPath>
</defs>
</svg>
