<svg width="36" height="36" viewBox="0 0 36 36" fill="red" xmlns="http://www.w3.org/2000/svg">
<path d="M28.5638 35.8041H6.8009C4.99719 35.8041 3.26735 35.0789 1.99194 33.7881C0.716521 32.4973 0 30.7466 0 28.9211V9.64858C0 9.28348 0.143304 8.93334 0.398387 8.67517C0.653471 8.41701 0.999438 8.27197 1.36018 8.27197H28.5638C30.3675 8.27197 32.0973 8.99715 33.3727 10.288C34.6482 11.5788 35.3647 13.3295 35.3647 15.155V28.9211C35.3647 30.7466 34.6482 32.4973 33.3727 33.7881C32.0973 35.0789 30.3675 35.8041 28.5638 35.8041ZM2.72036 11.0252V28.9211C2.72036 30.0164 3.15027 31.0668 3.91552 31.8413C4.68077 32.6158 5.71867 33.0509 6.8009 33.0509H28.5638C29.646 33.0509 30.6839 32.6158 31.4492 31.8413C32.2144 31.0668 32.6443 30.0164 32.6443 28.9211V15.155C32.6443 14.0597 32.2144 13.0093 31.4492 12.2348C30.6839 11.4603 29.646 11.0252 28.5638 11.0252H2.72036Z" fill="black"/>
<path d="M31.2843 11.0252C30.9235 11.0252 30.5776 10.8802 30.3225 10.622C30.0674 10.3639 29.9241 10.0137 29.9241 9.64863V5.86297C29.9502 5.38072 29.8683 4.89875 29.6846 4.45301C29.5009 4.00727 29.2201 3.60927 28.8632 3.28871C28.5424 3.04554 28.1712 2.87949 27.7776 2.80317C27.3841 2.72684 26.9785 2.74224 26.5917 2.8482L3.78145 8.09307C3.47462 8.163 3.20122 8.33839 3.00778 8.58938C2.81434 8.84037 2.71283 9.15145 2.72051 9.46967C2.72051 9.83477 2.57721 10.1849 2.32212 10.4431C2.06704 10.7012 1.72107 10.8463 1.36033 10.8463C0.999588 10.8463 0.653621 10.7012 0.398538 10.4431C0.143455 10.1849 0.000150409 9.83477 0.000150409 9.46967C-0.0078304 8.52861 0.302004 7.61302 0.87835 6.8745C1.4547 6.13598 2.26298 5.61883 3.16937 5.40869L25.9932 0.163816C26.7782 -0.0370647 27.5981 -0.0534237 28.3903 0.115992C29.1825 0.285408 29.9258 0.636102 30.5634 1.14121C31.2375 1.72026 31.7745 2.44519 32.1347 3.26245C32.4949 4.07972 32.6691 4.96843 32.6445 5.86297V9.64863C32.6445 10.0137 32.5012 10.3639 32.2461 10.622C31.991 10.8802 31.645 11.0252 31.2843 11.0252Z" fill="black"/>
<path d="M34.0049 27.5445H24.4837C23.0407 27.5445 21.6569 26.9643 20.6365 25.9317C19.6162 24.899 19.043 23.4984 19.043 22.038C19.043 20.5776 19.6162 19.1771 20.6365 18.1444C21.6569 17.1118 23.0407 16.5316 24.4837 16.5316H34.0049C34.3657 16.5316 34.7117 16.6767 34.9667 16.9348C35.2218 17.193 35.3651 17.5431 35.3651 17.9082V26.1679C35.3651 26.533 35.2218 26.8831 34.9667 27.1413C34.7117 27.3994 34.3657 27.5445 34.0049 27.5445ZM24.4837 19.2848C23.7622 19.2848 23.0703 19.5749 22.5601 20.0912C22.0499 20.6076 21.7633 21.3078 21.7633 22.038C21.7633 22.7682 22.0499 23.4685 22.5601 23.9849C23.0703 24.5012 23.7622 24.7913 24.4837 24.7913H32.6448V19.2848H24.4837Z" fill="black"/>
</svg>
