<svg width="43" height="44" viewBox="0 0 43 44" fill="none" xmlns="http://www.w3.org/2000/svg">
<g clip-path="url(#clip0_3_508)">
<path d="M42.4888 22.3568C42.4888 22.3494 42.4884 22.342 42.4884 22.331C42.4791 21.7758 42.1406 21.3334 41.7141 21.3334H41.5107L38.371 13.3376C38.2385 12.9998 37.9743 12.7897 37.6827 12.7896L32.3222 12.7881L32.5267 10.6529C32.5851 9.79959 32.3848 8.99391 31.9627 8.38409C31.5413 7.77553 30.9531 7.44031 30.3061 7.44031H13.6692C13.2509 7.44031 12.8956 7.86664 12.8557 8.41629L12.6889 10.1755H22.1678C22.7833 10.1755 23.2692 10.8327 23.2531 11.6434C23.237 12.4542 22.725 13.1114 22.1095 13.1114H18.9477C18.9483 13.1135 18.9489 13.1151 18.9494 13.1187H9.66475C9.22948 13.1187 8.86737 13.5834 8.85599 14.1568C8.84461 14.7301 9.18817 15.1948 9.62343 15.1948H21.9153C22.4859 15.3108 22.9122 15.9606 22.8965 16.7475C22.8793 17.6117 22.3362 18.3124 21.6812 18.3197H13.2069C12.7673 18.3197 12.4016 18.7891 12.39 19.3682C12.3785 19.9473 12.7255 20.4167 13.1652 20.4167H21.5397C22.1186 20.523 22.5534 21.1781 22.5377 21.9727C22.5204 22.8413 21.9718 23.5455 21.3123 23.5455H11.7049V23.5467H10.8976C10.458 23.5467 10.0923 24.0161 10.0808 24.5952C10.0692 25.1743 10.4162 25.6437 10.8559 25.6437H11.5526L11.2801 29.3994C11.2217 30.2525 11.422 31.0582 11.8442 31.668C12.2654 32.2767 12.8538 32.6118 13.5007 32.6118H14.1017C14.3881 34.769 15.805 36.399 17.5382 36.399C19.2714 36.399 20.7531 34.769 21.1251 32.6119H28.6252C29.2316 32.6119 29.8057 32.3066 30.2559 31.8064C30.6676 32.3269 31.2134 32.6119 31.8093 32.6119H31.9327C32.219 34.769 33.6359 36.399 35.3692 36.399C37.1024 36.399 38.5841 34.769 38.9561 32.6119H39.4511C40.7408 32.6119 41.8845 31.2309 42.0007 29.5334L42.4858 22.4553C42.4864 22.4442 42.4861 22.4368 42.4866 22.4257C42.4874 22.411 42.4889 22.3962 42.4892 22.3822C42.4894 22.3748 42.4887 22.3637 42.4887 22.3563L42.4888 22.3568ZM17.5799 34.3017C16.4826 34.3017 15.6132 33.1259 15.6419 31.6805C15.6707 30.235 16.5868 29.0591 17.6841 29.0591C18.7815 29.0591 19.6508 30.235 19.6221 31.6805C19.5933 33.1259 18.6773 34.3017 17.5799 34.3017ZM35.4109 34.3017C34.3136 34.3017 33.4442 33.1259 33.4729 31.6805C33.5016 30.235 34.4178 29.0591 35.5151 29.0591C36.6124 29.0591 37.4818 30.235 37.453 31.6805C37.4243 33.1259 36.5082 34.3017 35.4109 34.3017ZM40.4147 29.3991C40.3733 30.0038 39.9512 30.5147 39.4929 30.5147H38.9574C38.6029 28.4749 37.2266 26.962 35.5567 26.962C33.8869 26.962 32.4505 28.4749 32.0149 30.5147H31.851C31.6486 30.5147 31.4681 30.4146 31.3424 30.233C31.2159 30.0502 31.1564 29.8017 31.1748 29.533L32.1785 14.886L34.4837 14.8866L34.1183 20.2186C34.0598 21.0718 34.26 21.8775 34.6821 22.4873C35.1034 23.0961 35.6919 23.4314 36.3389 23.4314H40.8235L40.4147 29.399L40.4147 29.3991Z" fill="#D73434"/>
</g>
<defs>
<clipPath id="clip0_3_508">
<rect width="41.5473" height="42.9387" fill="white" transform="translate(0.941895 0.450317)"/>
</clipPath>
</defs>
</svg>
